<?xml version="1.0" encoding="utf-8"?>
<svg version="1.1" id="Ebene_1" xmlns="http://www.w3.org/2000/svg" x="0px" y="0px"
	 viewBox="0 0 500 500" style="enable-background:new 0 0 500 500;" xml:space="preserve">
<style type="text/css">
	.st0{fill:rgb(218,35,35);}
</style>
<g>
	<polygon class="st0" points="188.7,152.3 125.5,152.3 104.1,210.7 210,210.8 	"/>
	<polygon class="st0" points="84.4,264.6 61.5,327.2 119.1,327.2 127.7,300.8 186,300.8 194.6,327.2 252.4,327.2 229.7,264.7 	"/>
	<path class="st0" d="M311.7,210.5c5.9-7,14.4-10.5,25.4-10.5c10.9,0,19.3,3.5,25.2,10.5c0.1,0.1,0.2,0.2,0.3,0.3l60.1,0.1
		c-1.9-6.3-4.6-12.4-7.9-18.1c-8-13.7-18.8-24.3-32.5-32c-13.7-7.7-28.7-11.5-45.2-11.5c-16.5,0-31.6,3.8-45.3,11.5
		c-13.8,7.7-24.7,18.3-32.7,32c-3.3,5.6-6,11.6-7.9,17.8l60.3,0.1C311.6,210.6,311.7,210.6,311.7,210.5z"/>
	<path class="st0" d="M396.2,307.7c9.5-8.2,17-18.2,22.5-30c2-4.2,3.6-8.6,4.8-13.2h-59c-0.7,1-1.4,1.9-2.1,2.8
		c-5.9,7-14.3,10.5-25.2,10.5c-11,0-19.5-3.5-25.4-10.5c-0.8-0.9-1.5-1.8-2.1-2.8h-59.3c2,7.3,4.9,14.2,8.8,20.7
		c8.1,13.7,19,24.4,32.7,32.1c13.7,7.7,28.9,11.6,45.3,11.6c4.9,0,9.3-0.3,13.1-1l16.8,27.7h64.7L396.2,307.7z"/>
</g>
</svg>
